<svg xmlns="http://www.w3.org/2000/svg" xmlns:xlink="http://www.w3.org/1999/xlink" width="248.7027" height="350.6408" viewBox="0 0 248.7027 350.6408">
  <defs>
    <linearGradient id="linear-gradient" x1="376.6989" y1="-410.4182" x2="394.2305" y2="-427.9498" gradientTransform="translate(-247.5397 753.44) rotate(-6.914)" gradientUnits="userSpaceOnUse">
      <stop offset="0" stop-color="#2d6cea"/>
      <stop offset="0.4984" stop-color="#2eaade"/>
      <stop offset="1" stop-color="#00dfe5"/>
    </linearGradient>
    <linearGradient id="linear-gradient-2" x1="84.9684" y1="316.6981" x2="112.9205" y2="288.746" gradientUnits="userSpaceOnUse">
      <stop offset="0" stop-color="#fff"/>
      <stop offset="1" stop-color="#f2e7e5"/>
    </linearGradient>
    <linearGradient id="linear-gradient-3" x1="104.5308" y1="335.4343" x2="104.5308" y2="272.2292" gradientUnits="userSpaceOnUse">
      <stop offset="0" stop-color="#141f36"/>
      <stop offset="1" stop-color="#b9b9bd"/>
    </linearGradient>
    <linearGradient id="linear-gradient-4" x1="12195.4115" y1="1404.3105" x2="12212.283" y2="1387.439" gradientTransform="matrix(-0.9652, -0.2615, -0.2615, 0.9652, 12755.0128, 1735.0523)" xlink:href="#linear-gradient-3"/>
    <linearGradient id="linear-gradient-5" x1="12631.6324" y1="1842.2673" x2="12665.1688" y2="1808.7309" gradientTransform="matrix(-0.9652, -0.2615, -0.2615, 0.9652, 12755.0128, 1735.0523)" gradientUnits="userSpaceOnUse">
      <stop offset="0" stop-color="#fff"/>
      <stop offset="1" stop-color="#b9b9bd"/>
    </linearGradient>
    <linearGradient id="linear-gradient-6" x1="74.9485" y1="263.578" x2="170.273" y2="168.2534" gradientTransform="matrix(1, 0, 0, 1, 0, 0)" xlink:href="#linear-gradient-5"/>
    <linearGradient id="linear-gradient-7" x1="1989.3726" y1="-2361.4856" x2="2037.2382" y2="-2409.3512" gradientTransform="matrix(0.8711, -0.4911, 0.4911, 0.8711, -416.6862, 3380.2124)" xlink:href="#linear-gradient-2"/>
    <linearGradient id="linear-gradient-8" x1="140.522" y1="294.9456" x2="140.522" y2="173.4556" xlink:href="#linear-gradient-3"/>
    <linearGradient id="linear-gradient-9" x1="795.4104" y1="-971.5946" x2="812.7537" y2="-988.9379" gradientTransform="matrix(0.976, -0.2177, 0.2177, 0.976, -398.5147, 1431.2216)" xlink:href="#linear-gradient"/>
    <linearGradient id="linear-gradient-10" x1="-136.753" y1="801.9385" x2="-19.1443" y2="801.9385" gradientTransform="matrix(0.9946, 0.1039, -0.1039, 0.9946, 284.5505, -637.6945)" gradientUnits="userSpaceOnUse">
      <stop offset="0" stop-color="#f2e7e5"/>
      <stop offset="1" stop-color="#b9b9bd"/>
    </linearGradient>
    <linearGradient id="linear-gradient-11" x1="9.1487" y1="735.2239" x2="31.111" y2="713.2616" xlink:href="#linear-gradient-10"/>
    <linearGradient id="linear-gradient-12" x1="3.1662" y1="776.9478" x2="26.2372" y2="753.8768" gradientTransform="matrix(0.9946, 0.1039, -0.1039, 0.9946, 284.5505, -637.6945)" xlink:href="#linear-gradient"/>
    <linearGradient id="linear-gradient-13" x1="-2.8945" y1="739.8251" x2="27.2287" y2="709.7019" gradientTransform="matrix(0.9946, 0.1039, -0.1039, 0.9946, 284.5505, -637.6945)" xlink:href="#linear-gradient"/>
    <linearGradient id="linear-gradient-14" x1="12481.9381" y1="735.2286" x2="12503.9093" y2="713.2574" gradientTransform="matrix(-0.9946, -0.1039, -0.1039, 0.9946, 12539.1282, 642.2126)" xlink:href="#linear-gradient-10"/>
    <linearGradient id="linear-gradient-15" x1="12475.96" y1="776.9478" x2="12499.031" y2="753.8768" gradientTransform="matrix(-0.9946, -0.1039, -0.1039, 0.9946, 12539.1282, 642.2126)" xlink:href="#linear-gradient"/>
    <linearGradient id="linear-gradient-16" x1="12469.899" y1="739.8252" x2="12500.0222" y2="709.702" gradientTransform="matrix(-0.9946, -0.1039, -0.1039, 0.9946, 12539.1282, 642.2126)" xlink:href="#linear-gradient"/>
    <linearGradient id="linear-gradient-17" x1="-137.9411" y1="797.3842" x2="-10.7341" y2="670.1772" xlink:href="#linear-gradient-10"/>
    <linearGradient id="linear-gradient-18" x1="-75.7133" y1="796.3981" x2="-75.7133" y2="694.2913" gradientTransform="matrix(0.9946, 0.1039, -0.1039, 0.9946, 284.5505, -637.6945)" xlink:href="#linear-gradient-3"/>
    <linearGradient id="linear-gradient-19" x1="-119.4472" y1="800.8816" x2="-31.9753" y2="713.4098" gradientTransform="matrix(0.9946, 0.1039, -0.1039, 0.9946, 284.5505, -637.6945)" gradientUnits="userSpaceOnUse">
      <stop offset="0" stop-color="#141f36"/>
      <stop offset="1" stop-color="#2d3d54"/>
    </linearGradient>
    <linearGradient id="linear-gradient-20" x1="159.2492" y1="117.6553" x2="176.2045" y2="103.9069" gradientTransform="matrix(1, 0, 0, 1, 0, 0)" xlink:href="#linear-gradient"/>
    <linearGradient id="linear-gradient-21" x1="84.66" y1="109.8651" x2="101.6153" y2="96.1166" gradientTransform="matrix(1, 0, 0, 1, 0, 0)" xlink:href="#linear-gradient"/>
    <linearGradient id="linear-gradient-22" x1="121.1786" y1="294.3814" x2="161.0965" y2="254.4635" xlink:href="#linear-gradient-3"/>
    <linearGradient id="linear-gradient-23" x1="66.4832" y1="176.519" x2="180.1718" y2="176.519" gradientTransform="matrix(1, 0, 0, 1, 0, 0)" xlink:href="#linear-gradient-19"/>
    <linearGradient id="linear-gradient-24" x1="111.2979" y1="188.6596" x2="136.0072" y2="163.9502" gradientTransform="matrix(1, 0, 0, 1, 0, 0)" xlink:href="#linear-gradient"/>
    <linearGradient id="linear-gradient-25" x1="101.6182" y1="225.1864" x2="143.2329" y2="225.1864" gradientTransform="matrix(1, 0, 0, 1, 0, 0)" xlink:href="#linear-gradient-19"/>
    <linearGradient id="linear-gradient-26" x1="112.1534" y1="231.9834" x2="130.1028" y2="214.034" gradientTransform="matrix(1, 0, 0, 1, 0, 0)" xlink:href="#linear-gradient"/>
    <linearGradient id="linear-gradient-27" x1="495.6948" y1="-360.0836" x2="520.2022" y2="-384.5911" gradientTransform="translate(-235.3189 708.6676) rotate(-6.2828)" xlink:href="#linear-gradient"/>
    <linearGradient id="linear-gradient-28" x1="989.2573" y1="-1299.202" x2="1006.1287" y2="-1316.0735" gradientTransform="translate(-416.9458 1735.0523) rotate(-15.1606)" xlink:href="#linear-gradient-3"/>
    <linearGradient id="linear-gradient-29" x1="968.9123" y1="-1317.8115" x2="1002.4486" y2="-1351.3478" gradientTransform="translate(-416.9458 1735.0523) rotate(-15.1606)" xlink:href="#linear-gradient-5"/>
    <linearGradient id="linear-gradient-30" x1="984.75" y1="-1329.2251" x2="1004.6137" y2="-1349.0887" gradientTransform="translate(-416.9458 1735.0523) rotate(-15.1606)" xlink:href="#linear-gradient"/>
    <linearGradient id="linear-gradient-31" x1="199.692" y1="270.3001" x2="246.0271" y2="223.965" gradientTransform="matrix(1, 0, 0, 1, 0, 0)" xlink:href="#linear-gradient"/>
    <linearGradient id="linear-gradient-32" x1="223.5532" y1="235.0676" x2="242.114" y2="235.0676" gradientTransform="matrix(1, 0, 0, 1, 0, 0)" xlink:href="#linear-gradient-19"/>
    <linearGradient id="linear-gradient-33" x1="12036.2618" y1="5369.3107" x2="12079.6822" y2="5325.8904" gradientTransform="translate(12538.3383 4391.6706) rotate(174.5933)" xlink:href="#linear-gradient"/>
    <linearGradient id="linear-gradient-34" x1="14.5453" y1="225.1864" x2="24.1238" y2="225.1864" gradientTransform="matrix(1, 0, 0, 1, 0, 0)" xlink:href="#linear-gradient-19"/>
    <linearGradient id="linear-gradient-35" x1="2.0001" y1="182.4432" x2="42.8146" y2="182.4432" gradientTransform="matrix(1, 0, 0, 1, 0, 0)" xlink:href="#linear-gradient-19"/>
    <linearGradient id="linear-gradient-36" x1="10387.4868" y1="7496.2076" x2="10410.3494" y2="7473.345" gradientTransform="translate(12745.4225 1633.5393) rotate(150.8185)" xlink:href="#linear-gradient"/>
  </defs>
  <g id="Camada_2" data-name="Camada 2">
    <g id="Infos">
      <g>
        <path d="M82.8531,276.4965c-10.5946,2.8615-8.9744,29.39,2.8686,28.7083S93.8645,273.5225,82.8531,276.4965Z" stroke="#141f36" stroke-linecap="round" stroke-linejoin="round" fill="url(#linear-gradient)"/>
        <path d="M93.1181,269.4677c-12.4166-9.6191-24.4371,28.9287,3.9037,59.2394S123.9046,293.3178,93.1181,269.4677Z" stroke="#141f36" stroke-linecap="round" stroke-linejoin="round" stroke-width="2" fill="url(#linear-gradient-2)"/>
        <path d="M84.4106,270.5159s-9.17,42.4936,27.039,65.705" fill="none" stroke="#141f36" stroke-linecap="round" stroke-linejoin="round"/>
        <g opacity="0.1">
          <path d="M107.5491,335.2614c-15.9055-21.148-15.3624-51.3394-14.4356-63.0322.1965.1218.3931.2621.59.412C118.1372,291.5705,122.8368,338.6411,107.5491,335.2614Z" fill="url(#linear-gradient-3)"/>
        </g>
        <line x1="61.8857" y1="200.5164" x2="39.6434" y2="223.489" fill="none" stroke-linecap="round" stroke-linejoin="round" stroke-width="15" stroke="url(#linear-gradient-4)"/>
        <g>
          <path d="M69.4185,212.8638a23.7211,23.7211,0,1,1,22.8789-17.52A23.7883,23.7883,0,0,1,69.4185,212.8638Z" fill="url(#linear-gradient-5)"/>
          <path d="M69.3914,166.4171a22.7208,22.7208,0,1,1-21.9131,16.782,22.7315,22.7315,0,0,1,21.9131-16.782m.0017-2h-.0017a24.6556,24.6556,0,1,0,.0017,0Z" fill="#141f36"/>
        </g>
        <path d="M57.86,214.764s-5.08-1.6068-11.1783-8.5707" fill="none" stroke="#141f36" stroke-linecap="round" stroke-linejoin="round"/>
        <path d="M53.7732,220.3275s-5.7454-2.6688-11.989-9.8423" fill="none" stroke="#141f36" stroke-linecap="round" stroke-linejoin="round"/>
        <g>
          <path d="M121.7417,295.9463c-22.1782,0-38.9394-20.2109-48.4717-58.4483-7.1352-28.623-7.7812-57.6225-7.7871-57.9121a1,1,0,0,1,.5464-.9106c.2315-.1177,23.52-11.7754,57.06-11.7754a146.9205,146.9205,0,0,1,57.4721,11.7456,1,1,0,0,1,.61.9678c-.0137.29-1.457,29.2881-9.3784,57.91C161.2134,275.7437,143.9063,295.9463,121.7417,295.9463Z" fill="url(#linear-gradient-6)"/>
          <path d="M123.0889,167.9a145.8358,145.8358,0,0,1,57.0832,11.6665s-5.4392,115.38-58.4306,115.38-55.2586-115.38-55.2586-115.38S89.4014,167.9,123.0889,167.9m0-2c-33.7788,0-56.56,11.399-57.5132,11.8842a2,2,0,0,0-1.0923,1.8216c.0056.2907.6541,29.4029,7.8164,58.1344,4.2356,16.99,9.8945,30.56,16.82,40.3343,8.8728,12.5224,19.8484,18.8718,32.6216,18.8718,12.758,0,23.8933-6.3395,33.0962-18.8425,7.1892-9.767,13.2177-23.3306,17.9184-40.3139,7.9514-28.7284,9.4-57.8385,9.4138-58.1293a2,2,0,0,0-1.2192-1.9364A147.9238,147.9238,0,0,0,123.0889,165.9Z" fill="#141f36"/>
        </g>
        <path d="M156.9485,278.6215c-6.7549,1.4145-6.6534,53.963,9.127,69.3081S197.43,270.1442,156.9485,278.6215Z" stroke="#141f36" stroke-linecap="round" stroke-linejoin="round" stroke-width="2" fill="url(#linear-gradient-7)"/>
        <path d="M160.0111,278.8455c-6.0182,13.4326-.2356,65.9269,14.7756,67.3449" fill="none" stroke="#141f36" stroke-linecap="round" stroke-linejoin="round"/>
        <g opacity="0.1">
          <path d="M180.1721,179.5656s-5.44,115.38-58.43,115.38a33.3972,33.3972,0,0,1-20.87-7.22c8.78-19.64,25.14-34.02,32.77-45.26,15.66-23.07,24.02-60.14,24.02-60.14a27.6428,27.6428,0,0,1,5.18-8.87A148.8063,148.8063,0,0,1,180.1721,179.5656Z" fill="url(#linear-gradient-8)"/>
        </g>
        <path d="M169.7221,285.4268c-10.1506,3.85-5.9681,29.8075,5.6241,27.9816S180.272,281.425,169.7221,285.4268Z" stroke="#141f36" stroke-linecap="round" stroke-linejoin="round" fill="url(#linear-gradient-9)"/>
        <g>
          <g>
            <path d="M143.2412,166.8584a171.0275,171.0275,0,0,1-17.6841-.9253,177.7676,177.7676,0,0,1-54.2788-14.6523,9.6359,9.6359,0,1,1,7.9551-17.5533,156.301,156.301,0,0,0,63.9732,13.8619,147.0522,147.0522,0,0,0,27.85-2.66,9.7446,9.7446,0,0,1,1.8409-.1773,9.6375,9.6375,0,0,1,1.8178,19.0992A166.2318,166.2318,0,0,1,143.2412,166.8584Z" fill="url(#linear-gradient-10)"/>
            <path d="M75.2612,133.8669a8.61,8.61,0,0,1,3.56.7718A158.3865,158.3865,0,0,0,143.2066,148.59a147.5224,147.5224,0,0,0,28.04-2.678,8.636,8.636,0,0,1,3.2786,16.958,164.6149,164.6149,0,0,1-31.2842,2.9889,169.1949,169.1949,0,0,1-17.58-.92,176.9485,176.9485,0,0,1-53.97-14.5681,8.637,8.637,0,0,1,3.57-16.5032m0-2a10.637,10.637,0,0,0-4.3957,20.3249,178.7878,178.7878,0,0,0,54.5879,14.7356,171.9054,171.9054,0,0,0,17.7878.931,167.21,167.21,0,0,0,31.6638-3.0253,10.6371,10.6371,0,0,0-2.0075-21.08,10.7233,10.7233,0,0,0-2.03.1952,146.07,146.07,0,0,1-27.6606,2.6416,155.2919,155.2919,0,0,1-63.56-13.7725,10.5607,10.5607,0,0,0-4.385-.95Z" fill="#141f36"/>
          </g>
          <g>
            <g>
              <path d="M227.9356,103.9644a5.8175,5.8175,0,0,1-.6036-.0313c-5.74-.6-9.3549-9.5083-8.23-20.2812,1.082-10.3609,6.0859-18.1739,11.64-18.1739a5.8141,5.8141,0,0,1,.6035.0313c5.74.6,9.3545,9.5083,8.23,20.2812-1.082,10.36-6.0859,18.1739-11.6387,18.1739Z" fill="url(#linear-gradient-11)"/>
              <path d="M230.7415,66.478a4.8137,4.8137,0,0,1,.5.0262c5.104.5329,8.39,9.1213,7.3391,19.1823-1.0166,9.7326-5.7187,17.2779-10.6447,17.2779a4.811,4.811,0,0,1-.5-.026c-5.104-.5331-8.39-9.1214-7.3391-19.1824,1.0166-9.7326,5.7187-17.278,10.6448-17.278m0-2c-6.0669,0-11.4983,8.1985-12.6341,19.07-1.1833,11.3307,2.823,20.7216,9.1206,21.3793a6.82,6.82,0,0,0,.7076.0369c6.0666,0,11.4982-8.1984,12.634-19.07a31.3112,31.3112,0,0,0-1.4829-14.0867c-1.6692-4.3628-4.3816-6.9526-7.6377-7.2927a6.8531,6.8531,0,0,0-.7075-.0369Z" fill="#141f36"/>
            </g>
            <g>
              <path d="M221.7949,153.0479a1.0007,1.0007,0,0,1-.9467-.68L204.2847,103.41a.9993.9993,0,0,1,1.164-1.2964l19.8794,4.4194a1,1,0,0,1,.7754.85l5.4146,42.5025a1,1,0,0,1-.7652,1.1l-8.73,2.0361A.9828.9828,0,0,1,221.7949,153.0479Z" fill="url(#linear-gradient-12)"/>
              <path d="M205.2317,103.09l19.88,4.4193,5.4145,42.5023-8.73,2.036L205.2317,103.09m0-2a2,2,0,0,0-1.8945,2.641l16.5639,48.9576a1.9981,1.9981,0,0,0,2.3487,1.3068l8.7307-2.036a2,2,0,0,0,1.5295-2.2006l-5.4145-42.5022a2,2,0,0,0-1.55-1.7l-19.88-4.4193a2.0043,2.0043,0,0,0-.4341-.0476Z" fill="#141f36"/>
            </g>
            <g>
              <path d="M225.0073,108.5039l-12.1855-1.2729a1,1,0,0,1-.8955-.9693c-.0357-1.4048-.8037-34.5263,4.8027-45.4048a1,1,0,0,1,.8882-.542c.0347,0,.0693.002.1045.0054l12.1855,1.2725a1,1,0,0,1,.8946.938c.0146.2592,1.4043,26.1694-4.7383,45.2846a1.0009,1.0009,0,0,1-.9517.6939C225.0772,108.5093,225.0425,108.5073,225.0073,108.5039Z" fill="url(#linear-gradient-13)"/>
              <path d="M217.6177,61.3147l12.1855,1.2727s1.4651,25.7626-4.6916,44.9219l-12.1858-1.2727s-.8616-34.1458,4.6919-44.9219m-.0007-2a2,2,0,0,0-1.7771,1.0837c-5.7222,11.1036-4.9493,44.4735-4.9134,45.8886a2,2,0,0,0,1.7915,1.9387l12.1858,1.2727a1.9977,1.9977,0,0,0,2.1118-1.3773c6.1993-19.2915,4.845-44.58,4.7845-45.6472a2,2,0,0,0-1.7891-1.8758l-12.1856-1.2727a2.0036,2.0036,0,0,0-.2084-.0107Z" fill="#141f36"/>
            </g>
            <path d="M224.616,62.0457s2.7488,16.9071-4.6293,44.3243" fill="none" stroke="#141f36" stroke-linecap="round" stroke-linejoin="round"/>
            <line x1="212.8473" y1="125.5992" x2="227.1615" y2="123.6009" fill="none" stroke="#141f36" stroke-linecap="round" stroke-linejoin="round"/>
            <line x1="215.0474" y1="132.102" x2="228.0814" y2="130.8219" fill="none" stroke="#141f36" stroke-linecap="round" stroke-linejoin="round"/>
          </g>
          <g>
            <g>
              <path d="M37.1548,84.0386a5.8141,5.8141,0,0,1-.6035-.0313c-5.74-.6-9.3545-9.5083-8.2295-20.2812,1.082-10.36,6.0859-18.1734,11.6387-18.1734a5.8194,5.8194,0,0,1,.604.0313c2.8623.2988,5.28,2.6621,6.8076,6.6553a30.2954,30.2954,0,0,1,1.4223,13.6254C47.7124,76.2256,42.7085,84.0386,37.1548,84.0386Z" fill="url(#linear-gradient-14)"/>
              <path d="M39.9612,46.5522a4.81,4.81,0,0,1,.5.0262c5.104.5332,8.39,9.1213,7.3389,19.1823-1.0164,9.732-5.7188,17.278-10.6448,17.278a4.7821,4.7821,0,0,1-.5-.026c-5.104-.5331-8.39-9.1213-7.3391-19.1824,1.0163-9.7319,5.719-17.2771,10.645-17.2781m.0007-2h0c-6.0676.0013-11.4993,8.2-12.6348,19.07-1.1833,11.3306,2.823,20.7215,9.1206,21.3792a6.79,6.79,0,0,0,.7073.0369c6.0671,0,11.4985-8.1984,12.634-19.07,1.1836-11.3306-2.8225-20.7214-9.12-21.3794a6.8387,6.8387,0,0,0-.7066-.0369Z" fill="#141f36"/>
            </g>
            <g>
              <path d="M32.0259,133.2275a.9936.9936,0,0,1-.4229-.0942l-8.1215-3.7959a1,1,0,0,1-.521-1.2344l14.08-40.4663a1,1,0,0,1,.9336-.6714l20.3745-.2163a1,1,0,0,1,.86,1.5093L32.8867,132.7368A.9987.9987,0,0,1,32.0259,133.2275Z" fill="url(#linear-gradient-15)"/>
              <path d="M58.3489,87.7491h.0049m-.0049,0L32.0264,132.2275l-8.1214-3.796,14.08-40.4663,20.3638-.2161m0-2-.0188,0h-.0042l-20.362.216a2,2,0,0,0-1.8677,1.3427l-14.08,40.4663a2,2,0,0,0,1.042,2.4691l8.1214,3.796a1.9992,1.9992,0,0,0,2.5681-.7933L60.0281,88.8387a2,2,0,0,0-1.6743-3.09h-.0049Zm0,4h0Z" fill="#141f36"/>
            </g>
            <g>
              <path d="M50.0669,90.2324,37.8809,88.96a1,1,0,0,1-.8907-.8921c-2.06-19.9722,4.6534-45.0357,4.7212-45.2862a1.0008,1.0008,0,0,1,.9644-.7382c.0347,0,.07.0019.105.0053l12.1855,1.2725a1,1,0,0,1,.86.73c3.2373,11.8027-4.3579,44.0508-4.6826,45.4179a1.0009,1.0009,0,0,1-.9722.7686C50.1372,90.2378,50.1021,90.2358,50.0669,90.2324Z" fill="url(#linear-gradient-16)"/>
              <path d="M42.6768,43.0435l12.1858,1.2727c3.2065,11.6909-4.6919,44.9217-4.6919,44.9217L37.9851,87.9652C35.92,67.9473,42.6768,43.0435,42.6768,43.0435m-.0015-2A2,2,0,0,0,40.7466,42.52c-.28,1.0315-6.83,25.4944-4.751,45.6506a2,2,0,0,0,1.7818,1.7839l12.1855,1.2728a2.0266,2.0266,0,0,0,.21.0109A2,2,0,0,0,52.1165,89.7c.3274-1.3772,7.9787-33.8671,4.6748-45.9133a2,2,0,0,0-1.721-1.46L42.8845,41.0542a2.02,2.02,0,0,0-.2092-.0107Z" fill="#141f36"/>
            </g>
            <path d="M47.864,43.5852S41.681,59.5594,43.2346,87.91" fill="none" stroke="#141f36" stroke-linecap="round" stroke-linejoin="round"/>
            <line x1="46.2466" y1="108.1989" x2="32.6542" y2="103.2859" fill="none" stroke="#141f36" stroke-linecap="round" stroke-linejoin="round"/>
            <line x1="42.7503" y1="114.1068" x2="30.2621" y2="110.161" fill="none" stroke="#141f36" stroke-linecap="round" stroke-linejoin="round"/>
          </g>
          <g>
            <path d="M140.2881,159.2827c-48.7471-.0019-81.6592-25.6885-81.9863-25.9477a1.01,1.01,0,0,1-.2725-.336C45.3545,107.668,43.0659,63.9512,61.1753,34.64,74.7725,12.6323,98.1323,1,128.7305,1a141.3228,141.3228,0,0,1,15.8237.9307C178.792,5.8086,201.57,18.4985,212.2573,39.6479,233.9966,82.67,197.6426,146.7671,197.273,147.41a.9986.9986,0,0,1-.4878.4262,148.6442,148.6442,0,0,1-56.4912,11.4468Z" fill="url(#linear-gradient-17)"/>
            <path d="M128.7307,2a139.7775,139.7775,0,0,1,15.7107.9243c126.5852,14.3379,51.9649,143.9865,51.9649,143.9865a147.1127,147.1127,0,0,1-56.1177,11.3718c-48.9622,0-81.3645-25.7308-81.3645-25.7308C39.53,93.7913,41.8731,2,128.7307,2m0-2C112.3892,0,98.0869,3.2285,86.2214,9.5957A67.8914,67.8914,0,0,0,60.3247,34.1145C49.22,52.0889,46.9629,72.4305,47.0254,86.33c.0776,17.258,3.7627,34.4313,10.11,47.1169a2,2,0,0,0,.5447.6713c.3389.269,8.4587,6.6609,22.741,13.1214a146.68,146.68,0,0,0,59.8674,13.0432,149.6487,149.6487,0,0,0,56.8755-11.521,2,2,0,0,0,.9756-.8532,201.9147,201.9147,0,0,0,15.8151-37.6845c8.6016-28.4011,8.3233-52.9617-.8051-71.0269C202.3013,17.7278,179.26,4.8552,144.6665.937A142.3535,142.3535,0,0,0,128.7307,0Z" fill="#141f36"/>
          </g>
          <g opacity="0.8">
            <path d="M192.7891,136.6437c-1.0488.45-2.0817.8847-3.1271,1.3026-59.8364,24.2747-110.8942-4.8895-123.144-12.8775-1.8363-1.1821-2.7921-1.9049-2.7921-1.9049S40.6765,34.9023,137.12,44.9752,192.7891,136.6437,192.7891,136.6437Z" fill="url(#linear-gradient-18)"/>
          </g>
          <g>
            <path d="M141.64,148.4067c-38.1783,0-67.5752-17.2207-75.6758-22.4985a1,1,0,0,1-.4375-.6562c-2.3789-12.8838-6.9024-55.7608,34.7749-66.563a86.5354,86.5354,0,0,1,21.5259-2.4761,136.0292,136.0292,0,0,1,14.0434.771c25.7993,2.6943,43.6963,10.9643,53.1948,24.58,10.2115,14.6382,8.6114,32.4643,5.4707,44.8408a90.394,90.394,0,0,1-3.9477,11.9238,1.0017,1.0017,0,0,1-.5484.5449A128.2228,128.2228,0,0,1,141.64,148.4067Z" fill="url(#linear-gradient-19)"/>
            <path d="M121.8286,57.2129a134.2893,134.2893,0,0,1,13.938.7654c63.89,6.6731,63.4536,45.9007,57.8005,68.18a89.5145,89.5145,0,0,1-3.9028,11.7885,126.8843,126.8843,0,0,1-48.0244,9.46c-37.616,0-66.342-16.61-75.13-22.3361-2.4148-13.0762-6.7351-54.8446,34.0427-65.4134a85.0312,85.0312,0,0,1,21.2761-2.4443m.0017-2v2l0-2h-.0012a87.5347,87.5347,0,0,0-21.7766,2.508c-18.1938,4.7154-29.85,15.8747-34.6453,33.1683-3.7829,13.6413-2.165,27.4985-.8637,34.5445a2,2,0,0,0,.875,1.3126c8.1589,5.3158,37.7685,22.66,76.2219,22.66A129.2187,129.2187,0,0,0,190.416,139.8a1.9985,1.9985,0,0,0,1.0969-1.09,91.4608,91.4608,0,0,0,3.9917-12.0562c3.1927-12.5822,4.8084-30.714-5.6193-45.6621-9.6717-13.8643-27.81-22.2762-53.9109-25.0025a137.08,137.08,0,0,0-14.1441-.7761Z" fill="#141f36"/>
          </g>
          <path d="M193.5671,126.158c-78.5974.1-91.5448-43.8653-93.0146-66.5008,9.24-2.388,20.7975-3.1846,35.2141-1.6788C199.6571,64.6513,199.22,103.8791,193.5671,126.158Z" fill="#141f36" opacity="0.7"/>
          <path d="M156.7844,107.2788l9.6722-6.8776a3.6721,3.6721,0,0,1,4.8273.5043l8.042,8.7276a3.014,3.014,0,0,1-4,4.4721l-9.5671-7.0226,4.8271.5042-10.8117,4.8942a3.0141,3.0141,0,0,1-2.99-5.2022Z" fill="url(#linear-gradient-20)"/>
          <path d="M82.1953,99.4885l9.6719-6.8775a3.6722,3.6722,0,0,1,4.8274.5041l8.0422,8.7277a3.014,3.014,0,0,1-4,4.4721L91.17,99.2924l4.8269.5041-10.8118,4.8942a3.014,3.014,0,0,1-2.9895-5.2022Z" fill="url(#linear-gradient-21)"/>
          <g>
            <path d="M81.8688,14.5424s-1.55,20.0688,6.2027,17.512c10.4-3.43,28.8727-7.9138,54.6135-5.2253" fill="none" stroke="#141f36" stroke-linecap="round" stroke-linejoin="round"/>
            <path d="M204.7276,27.3741s-2.63,19.9561-9.6874,15.8524c-9.4665-5.5046-26.6144-13.709-52.3552-16.3974" fill="none" stroke="#141f36" stroke-linecap="round" stroke-linejoin="round"/>
          </g>
          <ellipse cx="208.9696" cy="48.9931" rx="1.9019" ry="3.8038" transform="translate(-1.8346 89.3691) rotate(-24.0375)" fill="none" stroke="#141f36" stroke-linecap="round" stroke-linejoin="round"/>
          <ellipse cx="68.6084" cy="34.3334" rx="3.8038" ry="1.9019" transform="translate(0.5282 69.7026) rotate(-54.0375)" fill="none" stroke="#141f36" stroke-linecap="round" stroke-linejoin="round"/>
        </g>
        <g opacity="0.8">
          <path d="M163.9753,257.3424c-8.7024,20.7793-22.015,37.5994-42.2363,37.5994C121.739,294.9418,122.0712,254.167,163.9753,257.3424Z" fill="url(#linear-gradient-22)"/>
        </g>
        <path d="M180.1718,179.566c-76.408,12.542-113.6886,0-113.6886,0S118.0463,153.3128,180.1718,179.566Z" fill="url(#linear-gradient-23)"/>
        <path d="M163.9753,257.3424c-8.7024,20.7793-22.015,37.5994-42.2363,37.5994C121.739,294.9418,122.0712,254.167,163.9753,257.3424Z" fill="none" stroke="#141f36" stroke-linecap="round" stroke-linejoin="round"/>
        <line x1="130.9036" y1="238.4629" x2="139.8809" y2="261.7781" fill="none" stroke="#141f36" stroke-linecap="round" stroke-linejoin="round"/>
        <path d="M66.4832,179.566s35.1568,12.4049,113.6886,0" fill="none" stroke="#141f36" stroke-linecap="round" stroke-linejoin="round"/>
        <path d="M148.1478,176.0908c-22.0667-7.4032-48.99.4282-48.99.4282S124.93,185.3515,148.1478,176.0908Z" stroke="#141f36" stroke-linecap="round" stroke-linejoin="round" stroke-width="2" fill="url(#linear-gradient-24)"/>
        <path d="M130.897,238.312s5.0951-6.6128,12.3359-27.0733c-17.604-2.511-27.3137,3.2481-27.3137,3.2481-8.6489,9.8715-14.2212,23.5905-14.301,24.2681C101.6182,238.7549,119.8694,241.3057,130.897,238.312Z" fill="url(#linear-gradient-25)"/>
        <path d="M73.5508,234.4038s30.9511,7.9009,57.3528,4.0591a263.93,263.93,0,0,0,21.48-55.2" fill="none" stroke="#141f36" stroke-linecap="round" stroke-linejoin="round"/>
        <circle cx="121.1281" cy="223.0087" r="12.6921" stroke="#141f36" stroke-linecap="round" stroke-linejoin="round" fill="url(#linear-gradient-26)"/>
        <line x1="68.1506" y1="178.785" x2="99.1573" y2="176.519" fill="none" stroke="#141f36" stroke-linecap="round" stroke-linejoin="round"/>
        <line x1="148.1478" y1="176.0908" x2="178.2725" y2="178.785" fill="none" stroke="#141f36" stroke-linecap="round" stroke-linejoin="round"/>
        <g>
          <g>
            <path d="M229.0054,304.3687a2.7169,2.7169,0,0,1-2.9478-2.5972c-.292-3.14-1.1811-12.6948-4.7275-12.6948a4.378,4.378,0,0,0-2.2754.8491,4.7817,4.7817,0,0,1-2.5732.9194,2.6826,2.6826,0,0,1-2.1177-1.0171c-2.4937-3.0107-.7232-12.82-.5132-13.9282a1.0055,1.0055,0,0,1,.0605-.2017c.2217-.5268,5.5225-12.9047,14.0191-12.9047,3.1826,0,6.3423,1.7534,9.3921,5.2114,9.2817,10.5254,7.1152,19.9624,4.9975,24.6513-3.1176,6.9024-9.5175,11.7125-13.3125,11.7125Z" fill="url(#linear-gradient-27)"/>
            <path d="M227.93,263.7933c2.61,0,5.52,1.3328,8.6426,4.8733,16.0759,18.23-1.4233,34.7018-7.5666,34.7018a1.7424,1.7424,0,0,1-1.9529-1.69c-.6336-6.8125-1.9221-13.602-5.7227-13.602a5.2815,5.2815,0,0,0-2.8213,1.0113,3.8654,3.8654,0,0,1-2.0275.7572c-4.2549,0-1.6485-13.7589-1.6485-13.7589S220,263.7933,227.93,263.7933m0-2c-9.1533,0-14.7087,12.9659-14.9406,13.5177a2.0051,2.0051,0,0,0-.1214.4027c-.5019,2.6493-1.9326,11.5425.7261,14.7522a3.7008,3.7008,0,0,0,2.8875,1.3791,5.7308,5.7308,0,0,0,3.12-1.0816,3.3653,3.3653,0,0,1,1.7292-.6869c.6182,0,2.7141.85,3.7312,11.7871a3.7253,3.7253,0,0,0,3.9444,3.5048c5.1106,0,11.6-6.4853,14.2273-12.3057,5.1613-11.4333-1.0179-21.0212-5.1607-25.7189-3.2478-3.683-6.66-5.55-10.1426-5.55Z" fill="#141f36"/>
          </g>
          <line x1="192.9225" y1="200.5164" x2="215.1649" y2="223.489" fill="none" stroke-linecap="round" stroke-linejoin="round" stroke-width="15" stroke="url(#linear-gradient-28)"/>
          <g>
            <path d="M185.39,212.8638a23.6562,23.6562,0,1,1,.0019,0Z" fill="url(#linear-gradient-29)"/>
            <path d="M185.417,166.4171a22.7368,22.7368,0,1,1-5.9551.7964,22.7281,22.7281,0,0,1,5.9551-.7964m0-2A24.7224,24.7224,0,1,0,209.26,182.676a24.7783,24.7783,0,0,0-23.8433-18.2589Z" fill="#141f36"/>
          </g>
          <path d="M208.598,182.8543a21.4929,21.4929,0,0,1,.5924,3.0046A16.1539,16.1539,0,1,1,186.7188,166.08,22.7051,22.7051,0,0,1,208.598,182.8543Z" stroke="#141f36" stroke-linecap="round" stroke-linejoin="round" fill="url(#linear-gradient-30)"/>
          <path d="M182.84,192.2492A30.372,30.372,0,0,1,203.39,173.4165" fill="none" stroke="#141f36" stroke-linecap="round" stroke-linejoin="round"/>
          <g>
            <path d="M217.5117,276.605a54.2363,54.2363,0,0,1-12.9341-1.6231,1,1,0,0,1-.7348-.7456,217.1672,217.1672,0,0,1-4.4238-46.0112,1.0016,1.0016,0,0,1,.3354-.7354c.6758-.6005,16.7046-14.7666,29.9092-19.1113a.9912.9912,0,0,1,.3125-.05,1,1,0,0,1,.957.71L247.66,264.3325a.9994.9994,0,0,1-.23.9766C246.9932,265.7705,236.5293,276.605,217.5117,276.605Z" fill="url(#linear-gradient-31)"/>
            <path d="M229.9763,209.3284l16.7263,55.2939s-10.3852,10.9829-29.1909,10.9829a52.9675,52.9675,0,0,1-12.6948-1.5945,213.9878,213.9878,0,0,1-4.3979-45.7734s16.3979-14.5793,29.5573-18.9089m0-2a1.9991,1.9991,0,0,0-.625.1c-13.3994,4.4084-29.5791,18.7075-30.2612,19.3141a1.9993,1.9993,0,0,0-.6709,1.47,218.2634,218.2634,0,0,0,4.4492,46.2492,2,2,0,0,0,1.47,1.4911,55.237,55.237,0,0,0,13.1728,1.6524c19.4434,0,30.1958-11.1347,30.6441-11.6087a2,2,0,0,0,.4612-1.9533l-16.7264-55.2939a2,2,0,0,0-1.9143-1.4209Z" fill="#141f36"/>
          </g>
          <path d="M242.114,249.05c-21.7415,6.0528-24.04-26.0527-8.6936-28.7222Z" stroke="#141f36" stroke-miterlimit="10" fill="url(#linear-gradient-32)"/>
          <path d="M203.39,266.5078s26.7629,5.0848,40.8808-9.9261" fill="none" stroke="#141f36" stroke-linecap="round" stroke-linejoin="round"/>
          <path d="M202.6845,261.9594s26.6435,4.0621,40.259-9.7638" fill="none" stroke="#141f36" stroke-linecap="round" stroke-linejoin="round"/>
          <path d="M196.9479,214.764s5.08-1.6068,11.1783-8.5707" fill="none" stroke="#141f36" stroke-linecap="round" stroke-linejoin="round"/>
          <path d="M201.035,220.3275s5.7455-2.6688,11.989-9.8423" fill="none" stroke="#141f36" stroke-linecap="round" stroke-linejoin="round"/>
        </g>
        <g>
          <path d="M27.8945,240.79c-.3891,0-.7812-.0073-1.18-.0224a1.0006,1.0006,0,0,1-.86-.56L1.1021,189.6943a1,1,0,0,1,.11-1.0556c.4556-.5835,11.4151-14.2881,33.51-14.2881a56.4777,56.4777,0,0,1,8.2392.6211.9992.9992,0,0,1,.77.5879A165.4368,165.4368,0,0,1,55.16,222.3628a1.0029,1.0029,0,0,1-.084.4907C54.9951,223.0332,46.82,240.79,27.8945,240.79Z" fill="url(#linear-gradient-33)"/>
          <path d="M34.7224,175.35a55.1293,55.1293,0,0,1,8.0923.6105,162.8722,162.8722,0,0,1,11.3486,46.4841S46.3916,239.79,27.8953,239.79c-.3767,0-.7566-.0072-1.1421-.0219L2,189.2543s10.8611-13.902,32.7224-13.904m.0044-2h-.0046c-22.5769.002-33.83,14.0737-34.2981,14.6726a2,2,0,0,0-.22,2.1115l24.7532,50.5135a2,2,0,0,0,1.72,1.1186c.4111.0156.8164.0233,1.218.0233,19.5669,0,27.7541-17.7705,28.0932-18.5271a1.9964,1.9964,0,0,0,.168-.9815,163.1985,163.1985,0,0,0-11.51-47.1229,2,2,0,0,0-1.539-1.1759,57.4285,57.4285,0,0,0-8.3809-.6321Z" fill="#141f36"/>
        </g>
        <path d="M6.2587,200.7161s27.9874,2.6214,41.031-14.1716" fill="none" stroke="#141f36" stroke-linecap="round" stroke-linejoin="round"/>
        <path d="M5.0923,196.1122S32.8575,197.6946,45.5,182.1678" fill="none" stroke="#141f36" stroke-linecap="round" stroke-linejoin="round"/>
        <path d="M14.5453,215.4723s11.3029,2.41,9.3522,19.4281Z" stroke="#141f36" stroke-miterlimit="10" fill="url(#linear-gradient-34)"/>
        <path d="M2,189.2542s25.42,3.901,40.8145-13.2933C42.8146,175.9609,17.766,170.6214,2,189.2542Z" fill="url(#linear-gradient-35)"/>
        <path d="M30.3354,179.9324c3.3446-3.7443,1.8023-9.9583,1.8023-9.9583s-3.7685-17.4778-8.4453-10.5468c-4.03,5.9719-8.84-.9475-12.77-8.2739-3.5931-6.698-21.77,21.6791,4.0758,34.1144C14.9984,185.2678,25.0515,185.8477,30.3354,179.9324Z" stroke="#141f36" stroke-linecap="round" stroke-linejoin="round" stroke-width="2" fill="url(#linear-gradient-36)"/>
        <path d="M2,189.2542s26.443,4.9244,40.8145-13.2933" fill="none" stroke="#141f36" stroke-linecap="round" stroke-linejoin="round"/>
        <g>
          <path d="M69.6084,184.0793s2.9047,39.0978,6.181,47.3439" fill="none" stroke="#fff" stroke-linecap="round" stroke-linejoin="round"/>
          <path d="M79.05,239.5164s4.9995,26.6272,19.8813,41.5874" fill="none" stroke="#fff" stroke-linecap="round" stroke-linejoin="round"/>
          <path d="M75.7894,170.4656s-18.47-5.5174-26.7622,12.4451" fill="none" stroke="#fff" stroke-linecap="round" stroke-linejoin="round"/>
          <path d="M78.79,18.7854S55.6285,34.3334,51.993,75.3721c-2.8462,32.13,9.3222,56.1054,9.3222,56.1054" fill="none" stroke="#fff" stroke-linecap="round" stroke-linejoin="round"/>
          <path d="M37.5926,48.4852S25.7065,61.1177,34.4443,80.1413" fill="none" stroke="#fff" stroke-linecap="round" stroke-linejoin="round"/>
          <path d="M84.5867,14.5424S117.071-5.6512,169.52,9.5472" fill="none" stroke="#fff" stroke-linecap="round" stroke-linejoin="round"/>
        </g>
      </g>
    </g>
  </g>
</svg>
